<svg id="Design_Layer" data-name="Design Layer" xmlns="http://www.w3.org/2000/svg" xmlns:xlink="http://www.w3.org/1999/xlink" viewBox="0 0 144 86.4"><defs><style>.cls-1{fill-rule:evenodd;fill:url(#linear-gradient);}</style><linearGradient id="linear-gradient" x1="17.19" y1="43.31" x2="131.34" y2="43.31" gradientUnits="userSpaceOnUse"><stop offset="0" stop-color="#0098db"/><stop offset="1" stop-color="#06e0a7"/></linearGradient></defs><path id="Path_448" data-name="Path 448" class="cls-1" d="M62.05,32.67Q54.76,25,45.61,25a18,18,0,0,0-18.24,18.2,18.85,18.85,0,0,0,2.34,9.52,16.59,16.59,0,0,0,6.59,6.54,19.18,19.18,0,0,0,9.52,2.36A19.58,19.58,0,0,0,54,60c16.73-7.54,16.34-33.1,36-42a30.33,30.33,0,0,1,12.79-2.81,29.46,29.46,0,0,1,14.59,3.79,27.06,27.06,0,0,1,10.39,10,27.85,27.85,0,0,1,3.63,14.26q0,12.4-8,20.33t-20.48,8a30.58,30.58,0,0,1-12.1-2.27,34.07,34.07,0,0,1-9.13-6.1l4.83-9.21A29.26,29.26,0,0,0,94.58,60a19.43,19.43,0,0,0,8.13,1.65,19.19,19.19,0,0,0,9.52-2.37,16.56,16.56,0,0,0,6.59-6.53,19,19,0,0,0,2.35-9.53,17.53,17.53,0,0,0-5.28-12.94,17.74,17.74,0,0,0-13-5.25c-24,0-22.44,34.61-45.14,44.24a30.37,30.37,0,0,1-12.1,2.26q-12.49,0-20.51-7.95T17.2,43.2a27.94,27.94,0,0,1,3.62-14.26,26.94,26.94,0,0,1,10.4-10,29.46,29.46,0,0,1,14.59-3.79,31.29,31.29,0,0,1,21.8,9Z"/></svg>